<?xml version="1.0" encoding="iso-8859-1"?>
<!-- Generator: Adobe Illustrator 16.0.0, SVG Export Plug-In . SVG Version: 6.00 Build 0)  -->
<!DOCTYPE svg PUBLIC "-//W3C//DTD SVG 1.1//EN" "http://www.w3.org/Graphics/SVG/1.1/DTD/svg11.dtd">
<svg xmlns="http://www.w3.org/2000/svg" xmlns:xlink="http://www.w3.org/1999/xlink" version="1.1" id="Capa_1" x="0px" y="0px" width="30px" height="30px" viewBox="0 0 417.027 417.027" style="enable-background:new 0 0 417.027 417.027;" xml:space="preserve">
<g>
	<polygon points="110.647,83.942 322.464,83.942 285.127,3.231  " fill="#f98b13"/>
	<polygon points="362.397,313.626 417.027,288.352 362.397,170.267  " fill="#f98b13"/>
	<polygon points="16.839,127.339 0,135.135 16.839,171.521  " fill="#f98b13"/>
	<path d="M34.502,413.796h314.166V99.644H34.502V413.796z M127.082,288.039c9.804-3.911,19.761-4.509,27.633-2.293v-51.979   c-0.016-0.129-0.042-0.253-0.042-0.381v-35.017c0-2.677,2.17-4.841,4.853-4.841l87.253-16.158c2.669,0,4.837,2.158,4.837,4.833   v25.407c0.085,0.469,0.133,0.942,0.133,1.436v93.649c0,1.306-0.325,2.532-0.897,3.618c-2.722,9.27-11.723,18.438-24.294,23.46   c-18.177,7.253-36.912,3.105-41.849-9.27c-4.929-12.371,5.797-28.28,23.97-35.518c9.796-3.907,19.747-4.492,27.63-2.284v-58.709   l-66.147,12.267v69.489c0,1.31-0.329,2.544-0.9,3.626c-2.725,9.27-11.722,18.423-24.299,23.443   c-18.174,7.254-36.906,3.106-41.844-9.269C98.176,311.189,108.908,295.288,127.082,288.039z" fill="#f98b13"/>
</g>
<g>
</g>
<g>
</g>
<g>
</g>
<g>
</g>
<g>
</g>
<g>
</g>
<g>
</g>
<g>
</g>
<g>
</g>
<g>
</g>
<g>
</g>
<g>
</g>
<g>
</g>
<g>
</g>
<g>
</g>
</svg>
