<?xml version="1.0" encoding="iso-8859-1"?>
<!-- Generator: Adobe Illustrator 18.0.0, SVG Export Plug-In . SVG Version: 6.00 Build 0)  -->
<!DOCTYPE svg PUBLIC "-//W3C//DTD SVG 1.1//EN" "http://www.w3.org/Graphics/SVG/1.1/DTD/svg11.dtd">
<svg xmlns="http://www.w3.org/2000/svg" xmlns:xlink="http://www.w3.org/1999/xlink" version="1.1" id="Capa_1" x="0px" y="0px" viewBox="0 0 250 250" xml:space="preserve" width="512px" height="512px">
<path d="M197.565,91.605c19.895-5.307,34.596-23.474,34.596-45.015C232.161,20.9,211.259,0,185.567,0  c-19.749,0-36.655,12.356-43.425,29.738c-7.144-10.494-19.183-17.4-32.807-17.4c-15.966,0-29.749,9.488-36.031,23.118  c-5.898-8.632-15.815-14.31-27.036-14.31c-18.046,0-32.727,14.681-32.727,32.726c0,13.238,7.905,24.656,19.238,29.806  c-16.187,5.606-27.845,20.992-27.845,39.06v63.409c0,2.761,2.238,5,5,5h48.985v26.191c0,2.761,2.238,5,5,5h62.149V245  c0,2.761,2.238,5,5,5h108.994c2.762,0,5-2.239,5-5v-95.112C245.064,121.189,224.641,97.171,197.565,91.605z M147.012,104.627  c-6.438-7.242-14.923-12.62-24.541-15.218c9.854-3.469,17.936-10.721,22.493-20.009c6.092,10.8,16.36,18.939,28.605,22.206  C163.576,93.659,154.5,98.238,147.012,104.627z M96.201,89.409c-6.244,1.687-12.016,4.538-17.056,8.318  c-4.894-6.417-11.618-11.358-19.389-14.049c6.085-2.765,11.181-7.332,14.595-13.025C79.004,79.339,86.796,86.097,96.201,89.409z" fill="#000000"/>
<g>
</g>
<g>
</g>
<g>
</g>
<g>
</g>
<g>
</g>
<g>
</g>
<g>
</g>
<g>
</g>
<g>
</g>
<g>
</g>
<g>
</g>
<g>
</g>
<g>
</g>
<g>
</g>
<g>
</g>
</svg>
